# xmcd CD database file
#
# Track frame offsets:
#	150
#	10430
#	20586
#	33432
#	47505
#	58253
#	67311
#	81181
#	93225
#	109235
#
# Disc length: 1667 seconds
#
# Revision: 2
# Processed by: cddbd v1.5.1PL0 Copyright (c) Steve Scherf et al.
# Submitted via: CDex 1.51
#
DISCID=8606810a
DTITLE=Anne Murray - Both Sides Now
DYEAR=2000
DGENRE=Country
TTITLE0=Some Birds
TTITLE1=It's All Over
TTITLE2=All The Time
TTITLE3=Buffalo In The Park
TTITLE4=For Baby
TTITLE5=Paths Of Victory
TTITLE6=Danny's Song
TTITLE7=Last Thing On My Mind
TTITLE8=Both Sides Now
TTITLE9=There Goes My Everything
EXTD=YEAR: 2000
EXTT0=
EXTT1=
EXTT2=
EXTT3=
EXTT4=
EXTT5=
EXTT6=
EXTT7=
EXTT8=
EXTT9=
PLAYORDER=
